<svg width="18" height="18" viewBox="0 0 18 18" fill="none" xmlns="http://www.w3.org/2000/svg">
  <path fill-rule="evenodd" clip-rule="evenodd" d="M15.8888 0.333313H1.88881C1.03092 0.333313 0.333252 1.03098 0.333252 1.88887V15.8889C0.333252 16.7468 1.03092 17.4444 1.88881 17.4444H7.72214C7.93681 17.4444 8.11103 17.2702 8.11103 17.0555V11.6111C8.11103 11.3964 7.93681 11.2222 7.72214 11.2222H6.9607C6.74603 11.2222 6.57181 11.048 6.57181 10.8333V8.49998C6.57181 8.28531 6.74603 8.11109 6.9607 8.11109H7.72214C7.93681 8.11109 8.11103 7.93687 8.11103 7.7222V6.94442C8.11103 5.01476 9.68136 3.44442 11.611 3.44442H13.9444C14.159 3.44442 14.3333 3.61865 14.3333 3.83331V6.16665C14.3333 6.38131 14.159 6.55554 13.9444 6.55554H11.611C11.3964 6.55554 11.2221 6.72976 11.2221 6.94442V7.7222C11.2221 7.93687 11.3964 8.11109 11.611 8.11109H13.9444C14.0587 8.11109 14.1676 8.16087 14.2407 8.24798C14.3154 8.33587 14.3473 8.45098 14.3278 8.56454L13.9389 10.8979C13.9078 11.0853 13.7468 11.2222 13.5555 11.2222H11.611C11.3964 11.2222 11.2221 11.3964 11.2221 11.6111V17.0555C11.2221 17.2702 11.3964 17.4444 11.611 17.4444H15.8888C16.7467 17.4444 17.4444 16.7468 17.4444 15.8889V1.88887C17.4444 1.03098 16.7467 0.333313 15.8888 0.333313Z" fill="#2B2B2B" />
</svg>