<svg width="20" height="20" viewBox="0 0 20 20" fill="none" xmlns="http://www.w3.org/2000/svg">
<path fill-rule="evenodd" clip-rule="evenodd" d="M14.3122 16.2783C13.9957 14.4319 13.5368 12.678 12.9192 10.984C14.3301 10.8494 15.8546 10.9809 17.519 11.383C17.1239 13.4037 15.9456 15.1443 14.3122 16.2783ZM5.02011 15.9454C6.86889 13.4223 8.93933 11.8699 11.3691 11.2445C12.0598 13.0863 12.5513 15.0051 12.8687 17.0709C11.9501 17.4535 10.9437 17.6667 9.889 17.6667C8.04644 17.6667 6.354 17.0195 5.02011 15.9454ZM2.11744 9.7621C5.18111 9.64621 7.86444 9.3351 10.2094 8.58921C10.4093 8.98821 10.6007 9.38876 10.7796 9.79243C8.15611 10.5189 5.88966 12.1895 3.89855 14.8441C2.78244 13.497 2.11044 11.7703 2.11044 9.88888C2.11044 9.8461 2.11666 9.80488 2.11744 9.7621ZM6.51811 2.89043C7.65989 4.33399 8.63366 5.7581 9.45889 7.19776C7.54089 7.7601 5.22 8.07276 2.30178 8.19799C2.82366 5.85454 4.40644 3.91165 6.51811 2.89043ZM14.929 3.97699C13.8036 5.14288 12.5241 6.02876 10.9406 6.68132C10.1231 5.21832 9.16722 3.77865 8.05811 2.33821C8.64611 2.1951 9.25666 2.1111 9.889 2.1111C11.8117 2.1111 13.5702 2.81654 14.929 3.97699ZM16.0023 5.09776C17.0274 6.4021 17.6466 8.03776 17.6629 9.81732C15.7371 9.37554 13.9653 9.26743 12.3227 9.48443C12.115 9.00065 11.898 8.51921 11.6623 8.04321C13.2778 7.35176 14.7198 6.4021 16.0023 5.09776ZM9.889 0.555542C4.74244 0.555542 0.555664 4.74232 0.555664 9.88888C0.555664 15.0354 4.74244 19.2222 9.889 19.2222C15.0348 19.2222 19.2216 15.0354 19.2216 9.88888C19.2216 4.74232 15.0348 0.555542 9.889 0.555542Z" fill="#FFF8F2"/>
</svg>
