<svg width="18" height="18" viewBox="0 0 18 18" fill="none" xmlns="http://www.w3.org/2000/svg">
<path fill-rule="evenodd" clip-rule="evenodd" d="M5.20522 2.1111C3.49955 2.1111 2.11122 3.49943 2.11122 5.2051V13.0171C2.11122 14.7228 3.49955 16.1111 5.20522 16.1111H13.0172C14.7229 16.1111 16.1112 14.7228 16.1112 13.0171V5.2051C16.1112 3.49943 14.7229 2.1111 13.0172 2.1111H5.20522ZM13.0172 17.6667H5.20522C2.64166 17.6667 0.555664 15.5807 0.555664 13.0171V5.2051C0.555664 2.64154 2.64166 0.555542 5.20522 0.555542H13.0172C15.5808 0.555542 17.6668 2.64154 17.6668 5.2051V13.0171C17.6668 15.5807 15.5808 17.6667 13.0172 17.6667Z" fill="white"/>
<path fill-rule="evenodd" clip-rule="evenodd" d="M9.11125 6.00001C7.39547 6.00001 6.00014 7.39535 6.00014 9.11112C6.00014 10.8269 7.39547 12.2222 9.11125 12.2222C10.827 12.2222 12.2224 10.8269 12.2224 9.11112C12.2224 7.39535 10.827 6.00001 9.11125 6.00001ZM9.11125 13.7778C6.53758 13.7778 4.44458 11.6848 4.44458 9.11112C4.44458 6.53746 6.53758 4.44446 9.11125 4.44446C11.6849 4.44446 13.7779 6.53746 13.7779 9.11112C13.7779 11.6848 11.6849 13.7778 9.11125 13.7778Z" fill="white"/>
<path fill-rule="evenodd" clip-rule="evenodd" d="M13.7778 4.44441C13.3492 4.44441 13 4.09519 13 3.66663C13 3.23808 13.3492 2.88885 13.7778 2.88885C14.2063 2.88885 14.5556 3.23808 14.5556 3.66663C14.5556 4.09519 14.2063 4.44441 13.7778 4.44441Z" fill="white"/>
</svg>
