<svg width="20" height="16" viewBox="0 0 20 16" fill="none" xmlns="http://www.w3.org/2000/svg">
<path fill-rule="evenodd" clip-rule="evenodd" d="M19.1181 2.00108C18.9991 1.87275 18.8085 1.84008 18.653 1.92175C18.5417 1.98008 18.3255 2.05631 18.072 2.13097C18.3761 1.73197 18.6226 1.27853 18.7284 0.872528C18.7704 0.71464 18.7074 0.547417 18.5736 0.454084C18.4375 0.361528 18.2594 0.363084 18.1272 0.457195C17.8985 0.619751 16.8415 1.08797 16.1594 1.23964C15.2937 0.461084 14.432 0.111084 13.3897 0.111084C12.6081 0.111084 11.884 0.334306 11.0424 0.83364C9.57473 1.70475 9.3204 3.58775 9.42929 4.74275C5.44551 4.36319 3.21096 2.04542 2.41685 1.03664C2.33751 0.936306 2.21151 0.888084 2.08396 0.88964C1.95562 0.898973 1.83973 0.970528 1.77518 1.08175C0.825512 2.70964 1.2144 4.38497 1.94396 5.51197C1.82418 5.43031 1.70285 5.33931 1.58151 5.23897C1.46485 5.14331 1.30385 5.12153 1.16773 5.18686C1.03162 5.25064 0.944512 5.38753 0.944512 5.53842C0.944512 7.2472 1.94551 8.46831 2.9224 9.16208C2.82673 9.13642 2.72407 9.10686 2.61596 9.07264C2.46973 9.02831 2.31107 9.07108 2.20996 9.18542C2.10807 9.29975 2.0824 9.46308 2.14462 9.60231C2.76918 11.0062 4.01129 12.0531 5.40351 12.4171C4.20651 13.1459 2.5514 13.52 0.989623 13.3356C0.807623 13.3115 0.632623 13.4251 0.575068 13.6009C0.517512 13.7759 0.591401 13.968 0.751623 14.0598C2.64473 15.1409 4.61173 15.6666 6.76462 15.6666H6.77862C9.7194 15.6643 12.4813 14.3849 14.5548 12.064C16.5561 9.82475 17.6053 6.95708 17.3906 4.34608C17.9047 3.96186 18.6833 3.2432 19.1632 2.47164C19.2565 2.32231 19.2378 2.12942 19.1181 2.00108Z" fill="#FFF8F2"/>
</svg>
