<?xml version="1.0" encoding="utf-8"?>
<!-- Generator: Adobe Illustrator 26.5.0, SVG Export Plug-In . SVG Version: 6.00 Build 0)  -->
<svg version="1.1" id="Layer_1" xmlns="http://www.w3.org/2000/svg" xmlns:xlink="http://www.w3.org/1999/xlink" x="0px" y="0px"
	 viewBox="0 0 976.6 217.6" style="enable-background:new 0 0 976.6 217.6;" xml:space="preserve">
<style type="text/css">
	.st0{fill:#E02126;}
	.st1{fill:#B11F24;}
	.st2{fill:#283577;}
</style>
<g id="Text_copy">
	<g>
		<g>
			<polygon class="st0" points="492.6,98.1 478.6,98.1 467.1,98.1 460,98.1 446.9,98.1 479.4,0.3 414.2,119.8 426.5,119.8 
				439.7,119.8 445.1,119.8 459.9,119.8 427.4,217.6 			"/>
			<path class="st1" d="M464.8,34l-21,63.1l-1.4,4.3h4.5H460h7.1h11.5h8.4l-45,82.5l21-63.1l1.4-4.3h-4.5h-14.8h-5.4h-13.2h-6.8
				L464.8,34 M479.4,0.3l-65.2,119.5h12.3h13.2h5.4h14.8l-32.5,97.9l65.2-119.5h-14h-11.5H460h-13.1L479.4,0.3L479.4,0.3z"/>
		</g>
		<g>
			<path class="st2" d="M0,173.3l17.8-10.8c12.6,23.1,27.1,34.7,43.5,34.7c7.1,0,13.7-1.7,20-5c6.2-3.3,11-7.7,14.2-13.2
				s4.8-11.3,4.8-17.6c0-7-2.4-13.9-7.1-20.7c-6.6-9.3-18.6-18.9-36.1-28.6C39.5,98.9,28.7,89.3,24.5,83.3
				C17,73.5,13.3,62.8,13.3,51.1c0-9.2,2.2-17.5,6.5-24.9c4.3-7.5,10.5-13.4,18.5-17.8c8-4.4,16.6-6.6,26-6.6c9.8,0,19,2.5,27.6,7.4
				c8.6,5,17.7,14,27.3,27.1l-17.1,12.9C94.3,38.8,87.6,31.9,82,28.6c-5.6-3.4-11.7-5-18.3-5c-8.4,0-15.3,2.6-20.7,7.7
				c-5.4,5.1-8.1,11.5-8.1,18.9c0,4.5,0.9,9,2.8,13.3c1.9,4.3,5.4,9,10.5,13.9c2.7,2.7,11.8,9.8,27.2,21.1
				c18.1,13.4,30.6,24.5,37.3,33.3c6.8,8.8,10.1,18.4,10.1,28.9c0,15.3-5.8,28.6-17.4,39.8c-11.6,11.2-25.6,16.9-42.1,16.9
				c-12.8,0-24.5-3.4-34.8-10.2C18.2,200.7,8.7,189.3,0,173.3z"/>
			<path class="st2" d="M144.5,61H165l47.6,112.9L262.5,61h3.5l49.6,112.9L364,61h21l-67.4,155.4h-4l-49.3-111.2l-49.9,111.2h-3.7
				L144.5,61z"/>
			<path class="st2" d="M608.9,210.7c-10.4,4-19.6,5.8-27.8,5.5c-15.3-0.8-27.4-8.8-36.3-23.8c-5.4-9.4-8-19.8-7.8-31.2V0h20.1v75.1
				h37v17.1h-36.8v65.7c-0.6,16.2,4.9,28.8,16.4,37.5c9.4,4.4,19.1,4,28.9-1.3C605.2,201.2,607.3,206.7,608.9,210.7z"/>
			<path class="st2" d="M797.3,89.3l-15.9,9.9c-13.7-18.3-32.4-27.5-56.1-27.5c-19,0-34.7,6.1-47.2,18.3s-18.8,27-18.8,44.5
				c0,11.3,2.9,22,8.6,32.1c5.8,10.1,13.6,17.8,23.7,23.3c10,5.5,21.2,8.2,33.7,8.2c22.9,0,41.6-9.1,56.1-27.2l15.9,10.3
				c-7.5,11.1-17.4,19.8-30,25.8c-12.5,6.1-26.8,9.1-42.8,9.1c-24.5,0-44.8-7.8-61-23.4s-24.3-34.5-24.3-56.8
				c0-15.1,3.8-29.1,11.4-42s18-22.9,31.2-30.2c13.2-7.2,28-10.8,44.4-10.8c10.2,0,20.1,1.6,29.7,4.7c9.6,3.1,17.7,7.2,24.4,12.3
				C787,75,792.7,81.5,797.3,89.3z"/>
			<path class="st2" d="M841.2,0.9h20.1v88c8-10.7,16.9-18.6,26.6-23.9c9.7-5.3,20.2-7.9,31.5-7.9c11.7,0,22,3,31,8.9
				s15.6,13.8,19.8,23.7c4.2,9.9,6.4,25.5,6.4,46.9v79.9h-19.8v-74.1c0-17.9-0.8-29.9-2.3-36c-2.5-10.3-6.9-18-13.5-23.2
				c-6.5-5.1-15.1-7.7-25.6-7.7c-12.1,0-22.9,4-32.5,12S867,105.4,864,117.2c-1.8,7.6-2.7,21.7-2.7,42.3v56.9h-20.1V0.9z"/>
		</g>
	</g>
</g>
</svg>
