<?xml version="1.0" encoding="utf-8"?>
<!-- Generator: Adobe Illustrator 26.5.0, SVG Export Plug-In . SVG Version: 6.00 Build 0)  -->
<svg version="1.1" id="Eye_Icon" xmlns="http://www.w3.org/2000/svg" xmlns:xlink="http://www.w3.org/1999/xlink" x="0px" y="0px"
	 viewBox="0 0 500 301" style="enable-background:new 0 0 500 301;" xml:space="preserve">
<style type="text/css">
	.st0{fill:#0E2B7C;}
</style>
<path id="Flat_1_" class="st0" d="M121.2,80.5v106.3h-7.4V94.1l-38.3,64.3L37.3,93.9v92.7h-7.4V88.5l-13.5-8h13.5l0,0h8L75.5,144
	l37.7-63.4C113.3,80.5,121.2,80.5,121.2,80.5z M209.2,150.7c0,0.7,0,1.3,0,1.8c0,0.5,0,1.2-0.1,1.8h-1.7h-63.5
	c0.2,1.8,0.6,3.6,1.2,5.4c1.1,3.3,2.7,6.3,4.9,9.1c2.2,2.8,4.9,5.1,8.1,7c3.2,1.9,6.6,3.1,10.2,3.6c3.6,0.5,7,0.4,10.4-0.3
	c3.4-0.7,6.6-2,9.5-3.8c2.8-1.7,5.2-3.8,7.3-6.5c0.7,0,7.3,0,8.8,0c-2.5,4.3-5.7,8-9.6,10.9c-3.9,2.9-8.1,5-12.6,6.2
	c-2.6,0.7-5.2,1.1-7.8,1.2c-0.1,0-0.2,0-0.4,0c-0.3,0-0.5,0-0.8,0c-0.1,0-0.3,0-0.4,0c-0.2,0-0.4,0-0.6,0c-0.2,0-0.4,0-0.7,0
	c-0.4,0-0.9,0-1.3-0.1c-0.1,0-0.3,0-0.4,0c-0.5,0-1-0.1-1.4-0.1c-0.1,0-0.1,0-0.2,0c-0.1,0-0.1,0-0.2,0c-0.4-0.1-0.9-0.1-1.3-0.2
	c-0.2,0-0.4-0.1-0.6-0.1c-0.4-0.1-0.7-0.1-1.1-0.2c-0.2-0.1-0.5-0.1-0.7-0.2c-0.3-0.1-0.6-0.1-0.9-0.2c-0.3-0.1-0.6-0.2-0.9-0.2
	c-0.3-0.1-0.5-0.2-0.8-0.2c-0.3-0.1-0.7-0.2-1-0.3c-0.2-0.1-0.4-0.1-0.7-0.2c-0.4-0.1-0.8-0.3-1.2-0.5c-0.1,0-0.1-0.1-0.2-0.1
	c-0.1,0-0.1-0.1-0.2-0.1c-0.4-0.2-0.8-0.4-1.2-0.6c-0.2-0.1-0.3-0.1-0.5-0.2c-0.4-0.2-0.7-0.4-1.1-0.5c-0.2-0.1-0.5-0.3-0.7-0.4
	c-0.2-0.1-0.3-0.2-0.5-0.3c-0.1-0.1-0.2-0.1-0.3-0.2c-0.3-0.2-0.5-0.3-0.8-0.5c-0.3-0.2-0.5-0.3-0.8-0.5c-0.2-0.1-0.4-0.3-0.6-0.4
	c-0.4-0.2-0.7-0.5-1-0.7c0,0-0.1-0.1-0.1-0.1c-2.8-2.1-5.2-4.4-7.2-7.2c-0.4-0.5-0.7-1-1.1-1.5c-0.3-0.4-0.5-0.8-0.8-1.2
	c0-0.1-0.1-0.1-0.1-0.2c-0.3-0.5-0.6-1-0.8-1.5c0,0,0,0,0,0c-0.6-1.1-1.1-2.2-1.6-3.3c-1.5-3.6-2.5-7.4-2.7-11.4c0-0.2,0-0.3,0-0.5
	c0-0.4,0-0.7,0-1.1c0-0.2,0-0.5,0-0.7c0-0.1,0-0.3,0-0.4c0-0.2,0-0.4,0-0.6c0-0.2,0-0.5,0-0.7c0-0.4,0-0.9,0.1-1.3
	c0-0.1,0-0.3,0-0.4c0-0.5,0.1-0.9,0.1-1.4c0-0.1,0-0.1,0-0.2c0,0,0-0.1,0-0.1c0.4-3.3,1.3-6.5,2.6-9.5c1.9-4.5,4.5-8.4,7.8-11.7
	c3.3-3.3,7.2-5.9,11.6-7.8c4.5-1.9,9.2-2.9,14.2-2.9c5,0,9.7,1,14.2,2.9c4.4,1.9,8.3,4.5,11.6,7.8c3.3,3.3,5.9,7.2,7.8,11.6
	C208.3,141,209.2,145.7,209.2,150.7z M201.7,147.1c-0.5-3.6-1.5-7-3.2-10.1c-1.7-3.1-3.8-5.8-6.3-8.1c-2.6-2.3-5.5-4.1-8.8-5.4
	c-3.3-1.3-6.8-1.9-10.5-1.9s-7.3,0.6-10.6,1.9c-3.3,1.3-6.3,3.1-8.9,5.4c-2.6,2.3-4.7,5-6.3,8.1s-2.7,6.4-3.2,10.1H201.7z
	 M242.8,116.6c-4.4,1.9-8.3,4.5-11.6,7.8c-3.3,3.3-5.9,7.2-7.8,11.6c-1.9,4.5-2.9,9.2-2.9,14.2c0,5,1,9.7,2.9,14.2
	c1.9,4.4,4.5,8.3,7.8,11.6c3.3,3.3,7.2,5.9,11.6,7.8c4.4,1.9,9.1,2.9,14.2,2.9c5,0,9.7-0.9,14.2-2.9c4.4-1.9,8.3-4.5,11.6-7.8
	c3.3-3.3,5.9-7.2,7.8-11.6s2.9-9.1,2.9-14.2V80.6h-7.3v47.8c-3.4-4.5-7.5-8-12.6-10.7c-5-2.6-10.6-4-16.6-4
	C251.9,113.8,247.2,114.7,242.8,116.6z M268.2,123.5c3.5,1.5,6.6,3.6,9.3,6.2c2.6,2.6,4.7,5.7,6.3,9.3c1.5,3.6,2.3,7.4,2.3,11.4
	c0,4-0.8,7.8-2.3,11.3s-3.6,6.6-6.3,9.3c-2.7,2.6-5.7,4.7-9.3,6.3c-3.5,1.5-7.3,2.3-11.3,2.3s-7.8-0.8-11.3-2.3
	c-3.5-1.5-6.6-3.6-9.3-6.3c-2.7-2.7-4.7-5.7-6.3-9.3c-1.5-3.5-2.3-7.3-2.3-11.3c0-4,0.8-7.8,2.3-11.4c1.5-3.6,3.6-6.7,6.3-9.3
	c2.6-2.6,5.7-4.7,9.3-6.2c3.5-1.5,7.3-2.3,11.3-2.3S264.7,121.9,268.2,123.5z M326.7,116.6c-4.4,1.9-8.3,4.5-11.6,7.8
	c-3.3,3.3-5.9,7.2-7.8,11.6c-1.9,4.5-2.9,9.2-2.9,14.2c0,5,0.9,9.7,2.9,14.2c1.9,4.4,4.5,8.3,7.8,11.6c3.3,3.3,7.2,5.9,11.6,7.8
	c4.4,1.9,9.1,2.9,14.2,2.9c5,0,9.7-0.9,14.2-2.9c4.4-1.9,8.3-4.5,11.6-7.8c3.3-3.3,5.9-7.2,7.8-11.6s2.9-9.1,2.9-14.2V80.6H370v47.8
	c-3.4-4.5-7.5-8-12.6-10.7c-5-2.6-10.6-4-16.6-4C335.9,113.8,331.2,114.7,326.7,116.6z M352.2,123.5c3.5,1.5,6.6,3.6,9.3,6.2
	c2.6,2.6,4.7,5.7,6.3,9.3c1.5,3.6,2.3,7.4,2.3,11.4c0,4-0.8,7.8-2.3,11.3s-3.6,6.6-6.3,9.3c-2.7,2.6-5.7,4.7-9.3,6.3
	c-3.5,1.5-7.3,2.3-11.3,2.3s-7.8-0.8-11.3-2.3c-3.5-1.5-6.6-3.6-9.3-6.3c-2.7-2.7-4.7-5.7-6.3-9.3c-1.5-3.5-2.3-7.3-2.3-11.3
	c0-4,0.8-7.8,2.3-11.4c1.5-3.6,3.6-6.7,6.3-9.3c2.6-2.6,5.7-4.7,9.3-6.2c3.5-1.5,7.3-2.3,11.3-2.3S348.7,121.9,352.2,123.5z
	 M392.5,168.6c0,2.5,0.5,4.9,1.5,7.1s2.3,4.2,3.9,5.9c1.6,1.7,3.6,3,5.8,3.9c2.2,0.9,4.6,1.4,7.1,1.4v-7.3c-3.1,0-5.7-1.1-7.8-3.2
	c-2.1-2.1-3.2-4.7-3.2-7.8V80.7h-7.3L392.5,168.6L392.5,168.6z M476.3,115.4v43.9c0,2.8-0.5,5.4-1.6,7.9c-1.1,2.5-2.5,4.6-4.3,6.4
	c-1.8,1.8-3.9,3.2-6.3,4.2c-2.4,1-5,1.5-7.8,1.5c-2.8,0-5.4-0.5-7.8-1.5c-2.4-1-4.5-2.4-6.4-4.2c-1.8-1.8-3.2-3.9-4.2-6.4
	c-1-2.5-1.5-5.1-1.5-7.9v-43.9h-7.4v43.9c0,3.8,0.7,7.4,2.2,10.7c1.4,3.3,3.4,6.2,5.8,8.6c2.5,2.5,5.3,4.4,8.6,5.9
	c3.3,1.4,6.9,2.2,10.7,2.2c4,0,7.7-0.8,11.2-2.4c3.5-1.6,6.4-3.7,8.9-6.4v15.2c0,2.8-0.5,5.4-1.6,7.8c-1.1,2.4-2.5,4.5-4.3,6.4
	c-1.8,1.8-3.9,3.3-6.3,4.3c-2.4,1.1-5,1.6-7.8,1.6s-5.4-0.5-7.8-1.6c-2.4-1.1-4.5-2.5-6.3-4.3c-1.8-1.8-3.2-3.8-4.2-6.2
	c-1.1,0-6.3,0-7.8,0c0.3,0.9,0.6,1.8,1,2.7c1.4,3.3,3.4,6.2,5.9,8.6c2.5,2.5,5.3,4.4,8.6,5.9c3.3,1.4,6.9,2.2,10.7,2.2l0,0l0,0l0,0
	l0,0c3.8,0,7.4-0.7,10.7-2.2c3.3-1.4,6.2-3.4,8.6-5.9c2.5-2.5,4.4-5.3,5.8-8.6c1.4-3.3,2.2-6.9,2.2-10.7v-33.8v-43.9L476.3,115.4
	L476.3,115.4z"/>
</svg>
