<?xml version="1.0" encoding="utf-8"?>
<!-- Generator: Adobe Illustrator 16.0.0, SVG Export Plug-In . SVG Version: 6.00 Build 0)  -->
<!DOCTYPE svg PUBLIC "-//W3C//DTD SVG 1.1//EN" "http://www.w3.org/Graphics/SVG/1.1/DTD/svg11.dtd">
<svg version="1.1" id="final" xmlns="http://www.w3.org/2000/svg" xmlns:xlink="http://www.w3.org/1999/xlink" x="0px" y="0px"
	 width="500px" height="500px" viewBox="0 0 500 500" enable-background="new 0 0 500 500" xml:space="preserve">
<rect fill="none" width="500" height="500"/>
<path id="path-1_1_" fill="#FFFFFF" d="M428.605,433.344c0,7.783-6.391,14.062-14.283,14.062h-84.234
	c-7.896,0-14.285-6.205-14.285-14.062V66.648c0-7.767,6.389-14.055,14.285-14.055h84.234c7.895,0,14.283,6.206,14.283,14.055
	V433.344z M184.198,433.344c0,7.783-6.39,14.062-14.285,14.062H85.679c-7.886,0-14.284-6.205-14.284-14.062V66.648
	c0-7.767,6.39-14.055,14.284-14.055h84.233c7.889,0,14.284,6.206,14.284,14.055L184.198,433.344L184.198,433.344z"/>
</svg>
