<?xml version="1.0" encoding="utf-8"?>
<!-- Generator: Adobe Illustrator 26.5.0, SVG Export Plug-In . SVG Version: 6.00 Build 0)  -->
<svg version="1.1" id="Layer_2_copy_2" xmlns="http://www.w3.org/2000/svg" xmlns:xlink="http://www.w3.org/1999/xlink" x="0px"
	 y="0px" viewBox="0 0 473.7 474.9" style="enable-background:new 0 0 473.7 474.9;" xml:space="preserve">
<style type="text/css">
	.st0{fill:#FFFFFF;}
</style>
<polygon class="st0" points="314,0 314,0 314,55.2 418.5,55.2 418.5,161.1 473.6,161.1 473.6,160.4 473.7,160.4 473.7,54.9 
	473.7,0.7 473.7,0 "/>
<polygon class="st0" points="0,160.3 0,160.4 55.2,160.4 55.2,55.9 161.2,55.9 161.2,0.8 160.4,0.8 160.4,0.7 55,0.7 0.8,0.7 0,0.7 
	"/>
<polygon class="st0" points="314,474.9 313.9,474.9 313.9,419.7 418.4,419.7 418.4,313.8 473.6,313.8 473.6,314.5 473.6,314.5 
	473.6,420 473.6,474.2 473.6,474.9 "/>
<polygon class="st0" points="0,314.6 0,314.5 55.2,314.5 55.2,419 161.1,419 161.1,474.1 160.4,474.1 160.4,474.2 54.9,474.2 
	0.7,474.2 0,474.2 "/>
</svg>
