<?xml version="1.0" encoding="utf-8"?>
<!-- Generator: Adobe Illustrator 26.5.0, SVG Export Plug-In . SVG Version: 6.00 Build 0)  -->
<svg version="1.1" id="Layer_2_copy_3" xmlns="http://www.w3.org/2000/svg" xmlns:xlink="http://www.w3.org/1999/xlink" x="0px"
	 y="0px" viewBox="0 0 473.7 474.9" style="enable-background:new 0 0 473.7 474.9;" xml:space="preserve">
<style type="text/css">
	.st0{fill:#FFFFFF;}
</style>
<g>
	<polygon class="st0" points="0.8,313.1 0.7,313.1 0.7,368.3 105.3,368.3 105.3,474.2 160.4,474.2 160.4,473.5 160.5,473.5 
		160.5,368 160.5,313.8 160.5,313.1 	"/>
	<polygon class="st0" points="473.6,161.1 473.6,161.1 473.6,105.9 369.1,105.9 369.1,0 314,0 314,0.7 313.9,0.7 313.9,106.2 
		313.9,160.4 313.9,161.1 	"/>
	<polygon class="st0" points="473.6,313.1 473.6,313.1 473.6,368.3 369.1,368.3 369.1,474.2 314,474.2 314,473.5 313.9,473.5 
		313.9,368 313.9,313.8 313.9,313.1 	"/>
	<polygon class="st0" points="161.1,0.8 161.1,0.7 105.9,0.7 105.9,105.2 0,105.2 0,160.3 0.7,160.3 0.7,160.4 106.2,160.4 
		160.4,160.4 161.1,160.4 	"/>
</g>
</svg>
