<?xml version="1.0" encoding="utf-8"?>
<!-- Generator: Adobe Illustrator 16.0.0, SVG Export Plug-In . SVG Version: 6.00 Build 0)  -->
<!DOCTYPE svg PUBLIC "-//W3C//DTD SVG 1.1//EN" "http://www.w3.org/Graphics/SVG/1.1/DTD/svg11.dtd">
<svg version="1.1" id="Total" xmlns="http://www.w3.org/2000/svg" xmlns:xlink="http://www.w3.org/1999/xlink" x="0px" y="0px"
	 width="233.644px" height="75.5px" viewBox="0 15.209 233.644 75.5" enable-background="new 0 15.209 233.644 75.5"
	 xml:space="preserve">
<g id="Logo">
	<path id="Text_Flat" fill="#00153E" d="M121.427,33.025v31.41h-2.181V37.022L107.939,56.04L96.634,36.983v27.405h-2.182V35.394
		l-3.994-2.369h3.994l0,0h2.369l11.119,18.743l11.145-18.743H121.427L121.427,33.025z M147.445,53.77c0,0.192,0,0.372,0,0.536
		c0,0.165-0.014,0.345-0.041,0.537h-0.495h-18.768c0.07,0.539,0.188,1.07,0.356,1.593c0.311,0.973,0.792,1.87,1.445,2.691
		c0.653,0.82,1.456,1.507,2.407,2.056c0.952,0.55,1.952,0.905,3.002,1.066s2.073,0.134,3.069-0.083c1-0.218,1.938-0.595,2.82-1.133
		c0.816-0.498,1.537-1.135,2.158-1.909c0.216,0,2.146,0,2.611-0.003c-0.742,1.285-1.688,2.358-2.835,3.22
		c-1.147,0.86-2.388,1.469-3.721,1.827c-0.754,0.201-1.523,0.316-2.308,0.349c-0.037,0.002-0.075,0.003-0.112,0.005
		c-0.074,0.002-0.146,0.005-0.223,0.005c-0.041,0.001-0.085,0.004-0.129,0.004c-0.063,0-0.126-0.004-0.19-0.006
		c-0.063-0.001-0.129-0.002-0.193-0.003c-0.13-0.005-0.258-0.013-0.386-0.021c-0.038-0.002-0.077-0.005-0.115-0.009
		c-0.142-0.01-0.281-0.024-0.42-0.04c-0.021-0.003-0.04-0.003-0.06-0.005c-0.021-0.003-0.041-0.008-0.062-0.01
		c-0.129-0.017-0.256-0.035-0.383-0.057c-0.061-0.011-0.121-0.021-0.182-0.031c-0.107-0.021-0.216-0.042-0.323-0.064
		c-0.073-0.018-0.147-0.034-0.223-0.052c-0.093-0.022-0.186-0.046-0.279-0.07c-0.085-0.022-0.17-0.047-0.255-0.072
		c-0.08-0.023-0.16-0.049-0.24-0.074c-0.097-0.03-0.194-0.064-0.29-0.098c-0.064-0.023-0.13-0.047-0.192-0.07
		c-0.115-0.042-0.229-0.089-0.342-0.136c-0.022-0.01-0.047-0.018-0.069-0.027c-0.02-0.008-0.041-0.019-0.062-0.029
		c-0.121-0.052-0.241-0.106-0.361-0.163c-0.046-0.021-0.091-0.044-0.135-0.066c-0.104-0.051-0.208-0.104-0.312-0.158
		c-0.068-0.038-0.139-0.075-0.208-0.114c-0.048-0.027-0.097-0.051-0.145-0.079c-0.032-0.019-0.062-0.038-0.094-0.058
		c-0.079-0.046-0.155-0.093-0.231-0.142c-0.079-0.049-0.158-0.099-0.235-0.149c-0.056-0.037-0.111-0.074-0.166-0.112
		c-0.104-0.071-0.207-0.144-0.308-0.218c-0.013-0.01-0.025-0.019-0.039-0.028c-0.816-0.607-1.527-1.312-2.129-2.117
		c-0.109-0.148-0.216-0.299-0.316-0.45c-0.083-0.12-0.16-0.246-0.238-0.369c-0.011-0.02-0.024-0.038-0.036-0.057
		c-0.086-0.143-0.171-0.287-0.251-0.436c-0.003-0.004-0.005-0.009-0.008-0.014c-0.171-0.312-0.33-0.636-0.475-0.972
		c-0.458-1.061-0.727-2.182-0.812-3.361c-0.003-0.046-0.007-0.092-0.011-0.139c-0.006-0.11-0.011-0.222-0.013-0.332
		c-0.003-0.074-0.005-0.148-0.005-0.224c-0.002-0.043-0.004-0.085-0.004-0.128c0-0.063,0.004-0.125,0.004-0.188
		c0.001-0.066,0.002-0.134,0.005-0.2c0.003-0.127,0.012-0.253,0.02-0.379c0.004-0.04,0.006-0.082,0.009-0.123
		c0.012-0.138,0.024-0.276,0.04-0.413c0.003-0.021,0.004-0.041,0.007-0.062c0.001-0.009,0.002-0.015,0.003-0.023
		c0.124-0.977,0.373-1.916,0.758-2.816c0.562-1.319,1.333-2.467,2.309-3.442c0.975-0.976,2.123-1.745,3.442-2.308
		c1.319-0.563,2.72-0.846,4.204-0.846c1.485,0,2.879,0.282,4.184,0.846s2.446,1.332,3.422,2.308s1.745,2.123,2.308,3.442
		C147.161,50.885,147.445,52.288,147.445,53.77z M145.219,52.699c-0.138-1.071-0.454-2.062-0.948-2.969
		c-0.495-0.905-1.12-1.703-1.876-2.39c-0.755-0.688-1.621-1.223-2.597-1.607s-2.013-0.577-3.112-0.577s-2.144,0.192-3.133,0.577
		s-1.862,0.92-2.617,1.607c-0.756,0.687-1.381,1.484-1.876,2.39c-0.494,0.907-0.811,1.897-0.947,2.969H145.219z M157.359,43.692
		c-1.307,0.563-2.446,1.333-3.422,2.309s-1.745,2.122-2.308,3.441c-0.563,1.318-0.846,2.721-0.846,4.204
		c0,1.484,0.282,2.879,0.846,4.184c0.563,1.306,1.332,2.446,2.308,3.422s2.117,1.746,3.422,2.309c1.305,0.563,2.7,0.845,4.184,0.845
		s2.879-0.281,4.184-0.845c1.305-0.562,2.446-1.333,3.422-2.309s1.745-2.116,2.309-3.422c0.562-1.305,0.845-2.699,0.845-4.184
		V33.035h-2.144v14.139c-0.989-1.318-2.226-2.37-3.71-3.153c-1.483-0.783-3.119-1.175-4.905-1.175
		C160.059,42.846,158.664,43.129,157.359,43.692z M164.881,45.71c1.045,0.455,1.959,1.066,2.742,1.836s1.401,1.684,1.854,2.74
		c0.454,1.059,0.68,2.178,0.68,3.359s-0.226,2.295-0.68,3.34c-0.453,1.043-1.07,1.958-1.854,2.741
		c-0.783,0.782-1.697,1.401-2.742,1.855c-1.045,0.453-2.157,0.68-3.339,0.68s-2.296-0.227-3.339-0.68
		c-1.044-0.454-1.957-1.072-2.742-1.855c-0.782-0.783-1.401-1.698-1.854-2.741c-0.454-1.045-0.681-2.158-0.681-3.34
		c0-1.18,0.227-2.301,0.681-3.359c0.452-1.057,1.07-1.971,1.854-2.74c0.785-0.771,1.698-1.382,2.742-1.836
		c1.043-0.452,2.157-0.68,3.339-0.68S163.836,45.258,164.881,45.71z M182.174,43.692c-1.306,0.563-2.446,1.333-3.422,2.309
		s-1.745,2.122-2.309,3.441c-0.563,1.318-0.844,2.721-0.844,4.204c0,1.484,0.28,2.879,0.844,4.184
		c0.564,1.306,1.333,2.446,2.309,3.422s2.116,1.746,3.422,2.309c1.305,0.563,2.699,0.845,4.184,0.845
		c1.485,0,2.88-0.281,4.184-0.845c1.306-0.562,2.446-1.333,3.422-2.309s1.745-2.116,2.309-3.422
		c0.562-1.305,0.845-2.699,0.845-4.184V33.035h-2.144v14.139c-0.989-1.318-2.227-2.37-3.71-3.153
		c-1.484-0.783-3.119-1.175-4.905-1.175C184.874,42.846,183.479,43.129,182.174,43.692z M189.697,45.71
		c1.045,0.455,1.959,1.066,2.742,1.836s1.4,1.684,1.854,2.74c0.454,1.059,0.681,2.178,0.681,3.359s-0.227,2.295-0.681,3.34
		c-0.454,1.043-1.07,1.958-1.854,2.741c-0.783,0.782-1.697,1.401-2.742,1.855c-1.045,0.453-2.157,0.68-3.339,0.68
		s-2.294-0.227-3.339-0.68c-1.044-0.454-1.958-1.072-2.742-1.855c-0.782-0.783-1.399-1.698-1.854-2.741
		c-0.453-1.045-0.68-2.158-0.68-3.34c0-1.18,0.227-2.301,0.68-3.359c0.455-1.057,1.071-1.971,1.854-2.74
		c0.784-0.771,1.698-1.382,2.742-1.836c1.045-0.452,2.157-0.68,3.339-0.68S188.652,45.258,189.697,45.71z M201.61,59.047
		c0,0.741,0.145,1.442,0.434,2.103c0.287,0.659,0.673,1.236,1.153,1.73c0.48,0.495,1.052,0.88,1.711,1.154s1.36,0.412,2.103,0.412
		v-2.145c-0.908,0-1.677-0.315-2.309-0.947c-0.633-0.632-0.949-1.402-0.949-2.309V33.078h-2.143V59.047L201.61,59.047z
		 M226.385,43.341v12.985c0,0.824-0.159,1.602-0.476,2.329c-0.315,0.729-0.742,1.359-1.276,1.896
		c-0.536,0.536-1.162,0.955-1.877,1.258c-0.714,0.303-1.483,0.454-2.308,0.454s-1.594-0.151-2.308-0.454
		c-0.715-0.303-1.34-0.722-1.876-1.258c-0.537-0.535-0.956-1.167-1.258-1.896c-0.303-0.728-0.453-1.505-0.453-2.329V43.341h-2.185
		v12.985c0,1.128,0.213,2.179,0.639,3.154c0.426,0.975,1.003,1.827,1.731,2.556c0.727,0.728,1.58,1.305,2.556,1.73
		c0.975,0.427,2.027,0.64,3.154,0.64c1.181,0,2.279-0.234,3.297-0.7c1.018-0.468,1.897-1.1,2.64-1.897v4.493
		c0,0.824-0.159,1.593-0.475,2.309c-0.316,0.715-0.743,1.339-1.278,1.876c-0.535,0.536-1.16,0.962-1.875,1.277
		c-0.715,0.316-1.484,0.474-2.309,0.474s-1.594-0.157-2.308-0.474c-0.714-0.315-1.34-0.742-1.876-1.277
		c-0.521-0.522-0.938-1.128-1.252-1.819c-0.322-0.001-1.855-0.001-2.294-0.001c0.081,0.269,0.178,0.531,0.289,0.789
		c0.427,0.976,1.004,1.828,1.732,2.556c0.729,0.729,1.58,1.306,2.556,1.732c0.976,0.425,2.026,0.639,3.152,0.639l0,0l0,0h0.001l0,0
		c1.126,0,2.178-0.214,3.153-0.639c0.976-0.428,1.826-1.004,2.556-1.732c0.728-0.728,1.305-1.58,1.731-2.556
		c0.426-0.976,0.639-2.026,0.639-3.153v-9.977V43.341H226.385L226.385,43.341z"/>
	<g id="Eye_Icon_1_">
		<g id="Middle_Eye_1_">
			<circle id="Outer_Black_2_" fill="#00153E" cx="41.189" cy="48.759" r="17.223"/>
			<circle id="Inner_1_" fill="#FFFFFF" cx="41.189" cy="48.759" r="15.5"/>
			<circle id="Pupil_2_" fill="#D30707" cx="41.189" cy="48.759" r="7.132"/>
			<circle id="Inner_Pupil_1_" fill="#FF0000" cx="41.189" cy="48.759" r="5.707"/>
		</g>
		<path id="Left_Arrow" fill="#00153E" d="M24.465,60.367c-0.379-0.324-0.762-0.64-1.142-0.959l-1.149-0.944l-1.156-0.933
			c-0.387-0.312-0.777-0.615-1.166-0.924c-0.388-0.308-0.778-0.61-1.171-0.914c-0.392-0.303-0.78-0.608-1.175-0.906l-1.182-0.898
			L15.135,53c-0.396-0.295-0.79-0.594-1.191-0.884l-1.197-0.877c-0.397-0.292-0.801-0.579-1.203-0.867l-0.761-0.545l8.965-1.033
			l-8.971-1.034l0.767-0.55c0.402-0.289,0.806-0.573,1.204-0.867l1.197-0.876c0.4-0.29,0.796-0.586,1.191-0.882l1.189-0.887
			l1.182-0.899c0.395-0.297,0.784-0.603,1.177-0.906c0.391-0.302,0.783-0.604,1.171-0.913c0.387-0.307,0.778-0.612,1.164-0.923
			l1.158-0.932l1.148-0.945c0.381-0.318,0.764-0.634,1.141-0.958c0.379-0.32,0.755-0.646,1.131-0.972
			c0.374-0.329,0.748-0.657,1.114-0.996c-0.445,0.225-0.885,0.461-1.322,0.696c-0.437,0.239-0.872,0.478-1.305,0.721
			c-0.435,0.241-0.864,0.489-1.296,0.735l-1.286,0.748l-1.278,0.758c-0.425,0.253-0.847,0.513-1.271,0.77
			c-0.424,0.255-0.844,0.518-1.264,0.778c-0.421,0.262-0.843,0.52-1.26,0.786l-1.254,0.794l-1.247,0.804
			c-0.416,0.268-0.832,0.536-1.242,0.809l-1.238,0.817c-0.415,0.27-0.823,0.55-1.233,0.824l-1.23,0.828l-1.223,0.837L6.54,47.802
			L5.114,48.79l1.426,0.987c0.812,0.564,1.627,1.125,2.446,1.68l1.229,0.828c0.409,0.277,0.819,0.555,1.233,0.825l1.237,0.817
			c0.412,0.274,0.829,0.539,1.243,0.81l1.247,0.804l1.254,0.795c0.417,0.267,0.839,0.523,1.26,0.785s0.841,0.523,1.265,0.778
			c0.424,0.257,0.845,0.518,1.271,0.771l1.277,0.76l1.287,0.748c0.43,0.246,0.859,0.494,1.294,0.736
			c0.433,0.243,0.868,0.482,1.305,0.721c0.438,0.235,0.876,0.473,1.321,0.697c-0.367-0.339-0.74-0.666-1.115-0.994
			C25.22,61.011,24.844,60.686,24.465,60.367z"/>
		<path id="Right_Arrow" fill="#00153E" d="M75.734,47.802l-1.22-0.843l-1.225-0.837l-1.23-0.828
			c-0.41-0.274-0.818-0.555-1.231-0.824l-1.238-0.817c-0.412-0.274-0.828-0.541-1.244-0.809l-1.246-0.804l-1.255-0.794
			c-0.417-0.266-0.84-0.524-1.26-0.786c-0.421-0.26-0.841-0.522-1.265-0.778c-0.424-0.256-0.846-0.515-1.271-0.77l-1.278-0.758
			l-1.286-0.748c-0.432-0.246-0.861-0.494-1.295-0.735c-0.434-0.243-0.869-0.481-1.306-0.721c-0.438-0.234-0.877-0.47-1.322-0.696
			c0.367,0.339,0.74,0.667,1.114,0.996c0.376,0.326,0.751,0.652,1.131,0.972c0.376,0.323,0.76,0.639,1.14,0.958l1.149,0.945
			l1.158,0.932c0.385,0.311,0.776,0.616,1.163,0.923c0.389,0.308,0.781,0.61,1.171,0.913c0.393,0.304,0.782,0.609,1.177,0.906
			l1.182,0.899l1.188,0.887c0.396,0.296,0.792,0.592,1.192,0.882l1.197,0.876c0.398,0.294,0.802,0.578,1.204,0.867l0.773,0.554
			l-8.935,1.03l8.93,1.028l-0.768,0.55c-0.402,0.288-0.806,0.575-1.203,0.867l-1.197,0.877c-0.4,0.29-0.796,0.589-1.192,0.884
			l-1.188,0.888l-1.182,0.898c-0.396,0.298-0.784,0.604-1.177,0.906c-0.391,0.304-0.783,0.606-1.17,0.914
			c-0.389,0.309-0.779,0.612-1.164,0.924l-1.158,0.933l-1.15,0.944c-0.38,0.319-0.762,0.635-1.141,0.959
			c-0.379,0.319-0.755,0.645-1.13,0.971c-0.374,0.329-0.748,0.655-1.115,0.994c0.445-0.225,0.884-0.462,1.321-0.697
			c0.436-0.238,0.872-0.478,1.304-0.721c0.436-0.241,0.865-0.489,1.295-0.734l1.287-0.75l1.277-0.76
			c0.426-0.252,0.848-0.513,1.271-0.771c0.425-0.255,0.845-0.517,1.266-0.778c0.419-0.262,0.843-0.519,1.26-0.785l1.254-0.795
			l1.247-0.804c0.414-0.271,0.832-0.536,1.243-0.809l1.237-0.818c0.414-0.271,0.824-0.548,1.233-0.824l1.23-0.828
			c0.818-0.555,1.632-1.116,2.445-1.68l1.427-0.987L75.734,47.802z"/>
	</g>
</g>
</svg>
