<?xml version="1.0" encoding="utf-8"?>
<!-- Generator: Adobe Illustrator 16.0.0, SVG Export Plug-In . SVG Version: 6.00 Build 0)  -->
<!DOCTYPE svg PUBLIC "-//W3C//DTD SVG 1.1//EN" "http://www.w3.org/Graphics/SVG/1.1/DTD/svg11.dtd">
<svg version="1.1" id="Eye_Icon" xmlns="http://www.w3.org/2000/svg" xmlns:xlink="http://www.w3.org/1999/xlink" x="0px" y="0px"
	 width="822.082px" height="398.667px" viewBox="0 0 822.082 398.667" enable-background="new 0 0 822.082 398.667"
	 xml:space="preserve">
<g id="Middle_Eye_2_">
	<circle id="Outer_Black_1_" fill="#00153E" cx="411.632" cy="199.333" r="193.344"/>
	<circle id="Inner" fill="#FFFFFF" cx="411.632" cy="199.333" r="174.011"/>
	<circle id="Pupil_1_" fill="#870000" cx="411.632" cy="199.333" r="80.075"/>
	<circle id="Inner_Pupil" fill="#FF0000" cx="411.633" cy="199.333" r="64.061"/>
</g>
<path fill="#00153E" d="M223.878,329.238c-4.237-3.627-8.532-7.174-12.806-10.748l-12.904-10.604l-12.994-10.476
	c-4.331-3.493-8.718-6.905-13.074-10.361c-4.351-3.464-8.75-6.858-13.143-10.262c-4.398-3.396-8.767-6.833-13.203-10.175
	l-13.265-10.086l-13.341-9.979c-4.457-3.312-8.886-6.66-13.381-9.918l-13.443-9.829c-4.468-3.295-8.99-6.513-13.501-9.745
	l-8.546-6.124l100.645-11.599L70.21,187.727l8.623-6.177c4.504-3.241,9.041-6.436,13.507-9.732l13.442-9.825
	c4.494-3.257,8.935-6.589,13.386-9.907l13.344-9.966l13.263-10.083c4.433-3.342,8.81-6.767,13.204-10.167
	c4.39-3.407,8.794-6.791,13.144-10.255c4.356-3.455,8.738-6.872,13.073-10.357l12.992-10.473l12.902-10.604
	c4.271-3.577,8.567-7.119,12.802-10.747c4.258-3.595,8.477-7.247,12.69-10.907c4.193-3.689,8.391-7.371,12.505-11.174
	c-5,2.527-9.916,5.175-14.837,7.817c-4.9,2.671-9.795,5.349-14.651,8.084c-4.879,2.702-9.697,5.491-14.54,8.245l-14.44,8.389
	l-14.35,8.518c-4.779,2.846-9.511,5.759-14.269,8.635c-4.764,2.867-9.473,5.813-14.198,8.737c-4.721,2.93-9.458,5.836-14.138,8.824
	l-14.079,8.908l-13.998,9.026c-4.664,3.012-9.336,6.01-13.957,9.084l-13.9,9.167c-4.647,3.034-9.225,6.17-13.835,9.259
	l-13.809,9.298l-13.744,9.39l-13.692,9.466L6.633,199.273l16.014,11.095c9.123,6.323,18.261,12.622,27.448,18.853l13.808,9.305
	c4.604,3.102,9.195,6.219,13.841,9.258l13.898,9.175c4.618,3.078,9.303,6.062,13.96,9.085l14,9.027l14.077,8.918
	c4.679,2.992,9.423,5.89,14.139,8.828c4.72,2.93,9.435,5.871,14.198,8.742c4.759,2.879,9.486,5.801,14.269,8.643l14.348,8.527
	l14.438,8.396c4.84,2.764,9.659,5.553,14.536,8.26c4.854,2.74,9.748,5.422,14.647,8.098c4.919,2.646,9.834,5.299,14.831,7.832
	c-4.117-3.799-8.315-7.482-12.513-11.17C232.357,336.486,228.138,332.832,223.878,329.238z"/>
<path fill="#00153E" d="M799.432,188.201l-13.689-9.466l-13.745-9.391l-13.81-9.297c-4.608-3.089-9.188-6.224-13.836-9.259
	l-13.897-9.167c-4.621-3.073-9.294-6.071-13.957-9.084l-13.997-9.026l-14.08-8.908c-4.681-2.988-9.417-5.893-14.137-8.824
	c-4.726-2.924-9.435-5.87-14.199-8.737c-4.758-2.876-9.491-5.789-14.27-8.635l-14.351-8.518L617.024,71.5
	c-4.844-2.754-9.66-5.543-14.539-8.245c-4.855-2.735-9.752-5.413-14.651-8.084c-4.921-2.641-9.837-5.29-14.837-7.817
	c4.114,3.803,8.312,7.485,12.505,11.174c4.212,3.659,8.431,7.312,12.69,10.907c4.235,3.629,8.531,7.171,12.803,10.747l12.899,10.604
	l12.991,10.472c4.335,3.485,8.717,6.902,13.073,10.357c4.35,3.464,8.755,6.848,13.144,10.255c4.395,3.399,8.771,6.824,13.205,10.167
	l13.265,10.083l13.344,9.966c4.451,3.318,8.893,6.65,13.386,9.907l13.442,9.825c4.466,3.296,9.003,6.491,13.507,9.732l8.691,6.226
	l-100.298,11.559l100.225,11.55l-8.61,6.171c-4.511,3.233-9.033,6.451-13.502,9.746l-13.442,9.829
	c-4.493,3.257-8.925,6.606-13.382,9.918l-13.342,9.978l-13.265,10.086c-4.436,3.343-8.807,6.779-13.203,10.176
	c-4.396,3.404-8.792,6.798-13.146,10.262c-4.354,3.456-8.74,6.868-13.071,10.361l-12.994,10.477l-12.904,10.604
	c-4.274,3.574-8.568,7.121-12.806,10.748c-4.258,3.594-8.479,7.248-12.695,10.906c-4.197,3.688-8.395,7.369-12.511,11.17
	c4.997-2.533,9.912-5.186,14.831-7.83c4.896-2.676,9.792-5.357,14.646-8.098c4.876-2.707,9.696-5.496,14.536-8.258l14.438-8.398
	l14.348-8.527c4.785-2.842,9.511-5.764,14.27-8.643c4.762-2.871,9.477-5.81,14.198-8.742c4.716-2.938,9.46-5.836,14.141-8.828
	l14.075-8.918l14-9.026c4.658-3.022,9.344-6.007,13.962-9.085l13.897-9.175c4.647-3.039,9.238-6.156,13.842-9.259l13.81-9.305
	c9.185-6.229,18.324-12.529,27.446-18.852l16.015-11.098L799.432,188.201z"/>
</svg>
