<?xml version="1.0" encoding="utf-8"?>
<!-- Generator: Adobe Illustrator 16.0.0, SVG Export Plug-In . SVG Version: 6.00 Build 0)  -->
<!DOCTYPE svg PUBLIC "-//W3C//DTD SVG 1.1//EN" "http://www.w3.org/Graphics/SVG/1.1/DTD/svg11.dtd">
<svg version="1.1" id="Eye_Icon" xmlns="http://www.w3.org/2000/svg" xmlns:xlink="http://www.w3.org/1999/xlink" x="0px" y="0px"
	 width="500px" height="301px" viewBox="0 0 500 301" enable-background="new 0 0 500 301" xml:space="preserve">
<path id="Flat_1_" fill="#FFFFFF" d="M121.184,80.531v106.282h-7.382V94.058l-38.264,64.347L37.283,93.928v92.726h-7.371V88.541
	l-13.517-8.01h13.517l0,0h8.01l37.626,63.422l37.706-63.422H121.184z M209.214,150.724c0,0.658,0,1.257,0,1.815
	c0,0.549-0.04,1.167-0.13,1.806h-1.676h-63.512c0.239,1.825,0.639,3.631,1.207,5.396c1.058,3.292,2.684,6.324,4.898,9.106
	c2.204,2.773,4.917,5.098,8.14,6.953c3.222,1.865,6.604,3.062,10.164,3.611c3.551,0.538,7.013,0.448,10.395-0.29
	c3.371-0.737,6.553-2.015,9.536-3.83c2.763-1.686,5.196-3.841,7.302-6.464c0.728,0,7.262,0,8.837-0.01
	c-2.514,4.349-5.705,7.979-9.596,10.893c-3.88,2.923-8.079,4.978-12.588,6.185c-2.554,0.688-5.157,1.067-7.811,1.177
	c-0.12,0.01-0.25,0.01-0.369,0.021c-0.26,0.01-0.509,0.02-0.759,0.02c-0.149,0-0.289,0.01-0.429,0.01
	c-0.219,0-0.429-0.01-0.648-0.02c-0.219,0-0.438-0.01-0.658-0.01c-0.429-0.021-0.868-0.04-1.297-0.07
	c-0.13-0.01-0.259-0.02-0.389-0.03c-0.479-0.039-0.958-0.089-1.427-0.139c-0.06-0.011-0.13-0.011-0.199-0.021
	c-0.07-0.01-0.14-0.02-0.21-0.03c-0.438-0.06-0.867-0.119-1.296-0.189c-0.21-0.039-0.409-0.069-0.619-0.109
	c-0.358-0.06-0.728-0.14-1.087-0.209c-0.249-0.061-0.499-0.11-0.748-0.18c-0.319-0.07-0.629-0.15-0.948-0.24
	c-0.289-0.069-0.578-0.159-0.867-0.239c-0.27-0.079-0.539-0.169-0.809-0.249c-0.329-0.109-0.658-0.22-0.978-0.339
	c-0.219-0.08-0.438-0.149-0.658-0.239c-0.389-0.14-0.768-0.3-1.157-0.459c-0.069-0.03-0.149-0.061-0.229-0.09
	c-0.069-0.03-0.14-0.07-0.209-0.1c-0.409-0.18-0.818-0.359-1.217-0.559c-0.16-0.07-0.31-0.14-0.459-0.22
	c-0.35-0.17-0.708-0.35-1.058-0.528c-0.239-0.13-0.469-0.26-0.708-0.39c-0.159-0.09-0.319-0.169-0.489-0.27
	c-0.109-0.06-0.209-0.129-0.318-0.189c-0.26-0.159-0.52-0.319-0.778-0.479c-0.27-0.17-0.539-0.339-0.798-0.509
	c-0.189-0.119-0.379-0.26-0.559-0.389c-0.35-0.239-0.698-0.479-1.048-0.729c-0.04-0.03-0.08-0.069-0.119-0.1
	c-2.773-2.055-5.178-4.439-7.202-7.162c-0.379-0.499-0.729-1.008-1.077-1.526c-0.279-0.409-0.549-0.828-0.809-1.247
	c-0.04-0.06-0.079-0.129-0.119-0.189c-0.3-0.479-0.579-0.978-0.849-1.477c-0.01-0.01-0.02-0.029-0.029-0.039
	c-0.579-1.067-1.117-2.165-1.606-3.302c-1.546-3.591-2.453-7.372-2.743-11.372c-0.01-0.159-0.029-0.319-0.04-0.469
	c-0.02-0.369-0.029-0.748-0.039-1.127c-0.011-0.25-0.021-0.509-0.021-0.748c0-0.149-0.01-0.289-0.01-0.439
	c0-0.209,0.01-0.419,0.01-0.628c0.01-0.229,0.01-0.459,0.021-0.679c0.01-0.429,0.029-0.86,0.06-1.284
	c0.01-0.14,0.02-0.279,0.03-0.419c0.039-0.469,0.079-0.938,0.14-1.396c0.01-0.075,0.01-0.135,0.02-0.21
	c0-0.029,0.01-0.05,0.01-0.079c0.419-3.302,1.267-6.484,2.563-9.526c1.905-4.469,4.509-8.35,7.811-11.65
	c3.302-3.297,7.183-5.9,11.641-7.806c4.469-1.905,9.218-2.868,14.234-2.868c5.018,0,9.736,0.963,14.155,2.868
	c4.409,1.905,8.279,4.509,11.581,7.806c3.302,3.301,5.905,7.182,7.811,11.65C208.266,140.96,209.214,145.708,209.214,150.724z
	 M201.692,147.104c-0.469-3.631-1.536-6.982-3.212-10.05c-1.666-3.067-3.791-5.766-6.345-8.09c-2.563-2.324-5.486-4.134-8.788-5.441
	c-3.302-1.296-6.812-1.944-10.533-1.944s-7.252,0.648-10.604,1.944c-3.342,1.308-6.294,3.117-8.857,5.441
	c-2.554,2.324-4.669,5.022-6.345,8.09s-2.743,6.419-3.202,10.05H201.692z M242.77,116.621c-4.419,1.905-8.279,4.509-11.581,7.811
	c-3.302,3.297-5.905,7.182-7.811,11.641c-1.905,4.469-2.863,9.207-2.863,14.232c0,5.018,0.958,9.735,2.863,14.154
	c1.905,4.409,4.509,8.27,7.811,11.581c3.302,3.292,7.162,5.905,11.581,7.811c4.416,1.905,9.135,2.853,14.152,2.853
	c5.027,0,9.745-0.947,14.164-2.853c4.409-1.905,8.27-4.519,11.571-7.811c3.302-3.302,5.905-7.162,7.811-11.581
	s2.863-9.137,2.863-14.154V80.562h-7.252v47.84c-3.352-4.459-7.531-8.02-12.559-10.673c-5.018-2.648-10.554-3.971-16.599-3.971
	C251.904,113.758,247.176,114.716,242.77,116.621z M268.224,123.454c3.531,1.536,6.623,3.605,9.276,6.215
	c2.644,2.603,4.738,5.69,6.274,9.271c1.536,3.576,2.305,7.366,2.305,11.364c0,4-0.769,7.771-2.305,11.302s-3.621,6.623-6.274,9.276
	c-2.653,2.644-5.745,4.738-9.276,6.274c-3.541,1.526-7.302,2.294-11.302,2.294s-7.761-0.768-11.3-2.294
	c-3.531-1.536-6.623-3.631-9.267-6.274c-2.653-2.653-4.748-5.745-6.284-9.276c-1.526-3.531-2.305-7.302-2.305-11.302
	c0-3.988,0.769-7.778,2.305-11.364c1.536-3.581,3.631-6.679,6.284-9.271c2.644-2.609,5.746-4.679,9.267-6.215
	c3.539-1.531,7.3-2.294,11.3-2.294S264.692,121.928,268.224,123.454z M326.737,116.621c-4.42,1.905-8.279,4.509-11.581,7.811
	c-3.312,3.302-5.905,7.182-7.811,11.641c-1.905,4.469-2.853,9.207-2.853,14.232c0,5.018,0.947,9.735,2.853,14.154
	c1.905,4.409,4.509,8.27,7.811,11.581c3.302,3.302,7.161,5.905,11.581,7.811c4.418,1.905,9.137,2.853,14.154,2.853
	c5.027,0,9.746-0.947,14.164-2.853c4.399-1.905,8.26-4.519,11.571-7.811c3.302-3.302,5.905-7.162,7.811-11.581
	s2.862-9.137,2.862-14.154V80.562h-7.251v47.84c-3.352-4.459-7.531-8.02-12.559-10.673c-5.018-2.648-10.554-3.971-16.599-3.971
	C335.874,113.758,331.155,114.716,326.737,116.621z M352.193,123.454c3.531,1.536,6.623,3.605,9.276,6.215
	c2.644,2.603,4.738,5.69,6.274,9.271c1.536,3.576,2.305,7.366,2.305,11.364c0,4-0.769,7.771-2.305,11.302s-3.621,6.623-6.274,9.276
	c-2.663,2.644-5.745,4.738-9.276,6.274c-3.531,1.526-7.302,2.294-11.302,2.294s-7.771-0.768-11.292-2.294
	c-3.541-1.536-6.634-3.631-9.276-6.274c-2.653-2.653-4.748-5.745-6.284-9.276c-1.526-3.531-2.295-7.302-2.295-11.302
	c0-3.988,0.769-7.778,2.295-11.364c1.536-3.581,3.631-6.679,6.284-9.271c2.643-2.609,5.735-4.679,9.276-6.215
	c3.521-1.531,7.292-2.294,11.292-2.294S348.662,121.928,352.193,123.454z M392.503,168.579c0,2.514,0.488,4.878,1.466,7.112
	s2.274,4.189,3.91,5.855c1.626,1.676,3.551,2.982,5.786,3.91c2.234,0.938,4.598,1.396,7.111,1.396v-7.252
	c-3.072,0-5.666-1.067-7.801-3.212c-2.145-2.135-3.211-4.749-3.211-7.811V80.701h-7.262V168.579L392.503,168.579z M476.333,115.435
	v43.947c0,2.783-0.529,5.416-1.606,7.88c-1.067,2.454-2.504,4.599-4.319,6.414c-1.815,1.806-3.93,3.232-6.344,4.25
	c-2.424,1.027-5.027,1.536-7.811,1.536c-2.793,0-5.396-0.509-7.811-1.536c-2.424-1.018-4.539-2.444-6.354-4.25
	c-1.807-1.815-3.232-3.95-4.24-6.414c-1.027-2.464-1.546-5.097-1.546-7.88v-43.947h-7.382v43.947c0,3.811,0.719,7.361,2.165,10.663
	c1.427,3.302,3.392,6.185,5.845,8.648c2.465,2.464,5.348,4.419,8.648,5.855c3.303,1.446,6.854,2.164,10.674,2.164
	c4,0,7.711-0.787,11.152-2.373c3.451-1.576,6.434-3.721,8.928-6.414v15.201c0,2.793-0.529,5.396-1.586,7.811
	c-1.078,2.424-2.514,4.539-4.33,6.354c-1.814,1.806-3.939,3.252-6.344,4.319c-2.434,1.067-5.018,1.605-7.811,1.605
	s-5.396-0.538-7.811-1.605c-2.424-1.067-4.538-2.514-6.344-4.319c-1.766-1.775-3.182-3.82-4.239-6.165c-1.098,0-6.284,0-7.771,0
	c0.279,0.908,0.608,1.806,0.987,2.664c1.437,3.302,3.392,6.185,5.855,8.648c2.464,2.463,5.347,4.419,8.648,5.865
	c3.292,1.436,6.862,2.164,10.673,2.164l0,0l0,0l0,0l0,0c3.811,0,7.371-0.729,10.674-2.164c3.291-1.446,6.174-3.402,8.648-5.865
	c2.453-2.464,4.408-5.347,5.845-8.648c1.437-3.292,2.175-6.854,2.175-10.664v-33.755v-43.938H476.333L476.333,115.435z"/>
</svg>
