<?xml version="1.0" encoding="utf-8"?>
<!-- Generator: Adobe Illustrator 27.8.0, SVG Export Plug-In . SVG Version: 6.00 Build 0)  -->
<svg version="1.1" id="Layer_1" xmlns="http://www.w3.org/2000/svg" xmlns:xlink="http://www.w3.org/1999/xlink" x="0px" y="0px"
	 viewBox="0 0 16 16" style="enable-background:new 0 0 16 16;" xml:space="preserve">
<path d="M15.4,6.1c0.2-0.2,0.2-0.6,0-0.7C13.3,3.9,10.7,3,8,3C5.3,3,2.7,3.9,0.7,5.4c-0.2,0.2-0.3,0.5,0,0.7c0.2,0.2,0.5,0.2,0.7,0
	C3.2,4.8,5.5,4,8,4c2.5,0,4.8,0.8,6.7,2.2C14.9,6.3,15.2,6.3,15.4,6.1z M13.2,8.3c0.2-0.2,0.2-0.6-0.1-0.7C11.7,6.6,9.9,6,8,6
	C6.1,6,4.3,6.6,2.8,7.5C2.6,7.7,2.6,8.1,2.8,8.3c0.2,0.2,0.4,0.2,0.7,0.1C4.7,7.5,6.3,7,8,7s3.3,0.5,4.6,1.3
	C12.8,8.5,13.1,8.4,13.2,8.3z M11,10.5c0.2-0.2,0.2-0.6-0.1-0.7C10.1,9.3,9.1,9,8,9C6.9,9,5.9,9.3,5.1,9.7C4.8,9.8,4.7,10.2,5,10.5
	l0,0c0.2,0.2,0.4,0.2,0.6,0.1C6.3,10.2,7.1,10,8,10c0.9,0,1.7,0.2,2.4,0.6C10.6,10.7,10.9,10.6,11,10.5L11,10.5z M9.1,12.4
	c0.2-0.2,0.2-0.5,0-0.7c-0.3-0.2-0.6-0.3-1-0.3s-0.7,0.1-1,0.3c-0.2,0.1-0.2,0.5,0,0.7l0.7,0.7c0.2,0.2,0.5,0.2,0.7,0L9.1,12.4z"/>
</svg>
