<?xml version="1.0" encoding="UTF-8"?>
<svg id="Layer_1" xmlns="http://www.w3.org/2000/svg" xmlns:xlink="http://www.w3.org/1999/xlink" version="1.1" viewBox="0 0 800 340.8">
  <!-- Generator: Adobe Illustrator 29.3.1, SVG Export Plug-In . SVG Version: 2.1.0 Build 151)  -->
  <defs>
    <style>
      .st0 {
        fill: none;
      }

      .st1 {
        fill: url(#linear-gradient2);
      }

      .st2 {
        fill: url(#linear-gradient1);
      }

      .st3 {
        fill: url(#linear-gradient3);
      }

      .st4 {
        fill: #f9f9fa;
      }

      .st5 {
        fill: url(#linear-gradient);
      }

      .st6 {
        clip-path: url(#clippath-1);
      }

      .st7 {
        clip-path: url(#clippath-3);
      }

      .st8 {
        clip-path: url(#clippath-2);
      }

      .st9 {
        fill: #f9f9f9;
      }

      .st10 {
        clip-path: url(#clippath);
      }
    </style>
    <clipPath id="clippath">
      <path class="st0" d="M173.4,154.8l-36.1-20.8s-65.7-37.9-69.6-40.2c-3.9-2.2-7.7-.9-7.7,3.8v163.7c0,3.5,2.8,5,6.1,3.1,3.4-1.9,71.2-41.1,71.2-41.1l36.1-20.8s30.6-17.7,34.7-20c4.1-2.4,3.7-5.6.2-7.4-3.4-1.9-34.9-20.2-34.9-20.2Z"/>
    </clipPath>
    <linearGradient id="linear-gradient" x1="1485.7" y1="-726.3" x2="1485.7" y2="-613" gradientTransform="translate(-2219.1 1225.9) scale(1.6)" gradientUnits="userSpaceOnUse">
      <stop offset="0" stop-color="#257cb0"/>
      <stop offset=".3" stop-color="#4a93b5"/>
      <stop offset=".8" stop-color="#78bcbb"/>
      <stop offset="1" stop-color="#89cfbd"/>
    </linearGradient>
    <clipPath id="clippath-1">
      <path class="st0" d="M173.4,154.8l-36.1-20.8s-65.7-37.9-69.6-40.2c-3.9-2.2-7.7-.9-7.7,3.8v163.7c0,3.5,2.8,5,6.1,3.1,3.4-1.9,71.2-41.1,71.2-41.1l36.1-20.8s30.6-17.7,34.7-20c4.1-2.4,3.7-5.6.2-7.4-3.4-1.9-34.9-20.2-34.9-20.2Z"/>
    </clipPath>
    <linearGradient id="linear-gradient1" x1="1457.1" y1="-698.2" x2="1529.6" y2="-698.2" gradientTransform="translate(-2219.1 1225.9) scale(1.6)" gradientUnits="userSpaceOnUse">
      <stop offset="0" stop-color="#52c1ad"/>
      <stop offset="1" stop-color="#dee89a"/>
    </linearGradient>
    <clipPath id="clippath-2">
      <path class="st0" d="M173.4,154.8l-36.1-20.8s-65.7-37.9-69.6-40.2c-3.9-2.2-7.7-.9-7.7,3.8v163.7c0,3.5,2.8,5,6.1,3.1,3.4-1.9,71.2-41.1,71.2-41.1l36.1-20.8s30.6-17.7,34.7-20c4.1-2.4,3.7-5.6.2-7.4-3.4-1.9-34.9-20.2-34.9-20.2Z"/>
    </clipPath>
    <linearGradient id="linear-gradient2" x1="1493.4" y1="-669.6" x2="1493.4" y2="-612.6" gradientTransform="translate(-2219.1 1225.9) scale(1.6)" gradientUnits="userSpaceOnUse">
      <stop offset="0" stop-color="#ec413d"/>
      <stop offset=".2" stop-color="#da4452"/>
      <stop offset=".6" stop-color="#b0487a"/>
      <stop offset=".9" stop-color="#954a92"/>
      <stop offset="1" stop-color="#8a4a9d"/>
    </linearGradient>
    <clipPath id="clippath-3">
      <path class="st0" d="M173.4,154.8l-36.1-20.8s-65.7-37.9-69.6-40.2c-3.9-2.2-7.7-.9-7.7,3.8v163.7c0,3.5,2.8,5,6.1,3.1,3.4-1.9,71.2-41.1,71.2-41.1l36.1-20.8s30.6-17.7,34.7-20c4.1-2.4,3.7-5.6.2-7.4-3.4-1.9-34.9-20.2-34.9-20.2Z"/>
    </clipPath>
    <linearGradient id="linear-gradient3" x1="1535.1" y1="-684.9" x2="1535.1" y2="-654.4" gradientTransform="translate(-2219.1 1225.9) scale(1.6)" gradientUnits="userSpaceOnUse">
      <stop offset="0" stop-color="#f58879"/>
      <stop offset=".1" stop-color="#f69079"/>
      <stop offset=".7" stop-color="#fcb877"/>
      <stop offset="1" stop-color="#fec874"/>
    </linearGradient>
  </defs>
  <path d="M800,265.9c0,19.5-15.8,35.4-35.4,35.4H35.4C15.8,301.3,0,285.4,0,265.9V74.9C0,55.4,15.8,39.6,35.4,39.6h729.3c19.5,0,35.4,15.8,35.4,35.4v191h0,0Z"/>
  <g class="st10">
    <path class="st5" d="M60,90v177.2l89.4-88.6L60,90Z"/>
  </g>
  <g class="st6">
    <path class="st2" d="M173.4,154.8l-36.1-20.8-77.3-44.6v.6l89.4,88.6,24-23.8Z"/>
  </g>
  <g class="st8">
    <path class="st1" d="M60,267.2v.6l77.3-44.6,36.1-20.8-24-23.8-89.4,88.6Z"/>
  </g>
  <g class="st7">
    <path class="st3" d="M173.4,154.8l-24,23.8,24,23.8,41.2-23.8-41.2-23.8Z"/>
  </g>
  <path class="st9" d="M622.6,213.2c-3.4,0-6.4-.6-9.2-1.9-2.8-1.2-5.1-3.1-7-5.7h-.6c.4,3,.6,5.9.6,8.6v21.2h-7.8v-74.7h6.3l1.1,7.1h.4c2-2.8,4.3-4.9,7-6.1,2.7-1.3,5.7-1.9,9.2-1.9,6.8,0,12.1,2.3,15.8,7,3.7,4.7,5.6,11.2,5.6,19.7s-1.9,15-5.7,19.7c-3.8,4.7-9,7-15.7,7h0ZM621.5,166.4c-5.3,0-9.1,1.5-11.4,4.4-2.4,2.9-3.6,7.6-3.6,13.9v1.7c0,7.2,1.2,12.4,3.6,15.5s6.3,4.7,11.6,4.7,7.9-1.8,10.5-5.4c2.5-3.6,3.8-8.6,3.8-14.9s-1.3-11.4-3.8-14.8c-2.5-3.4-6.1-5.1-10.7-5.1ZM662.1,212.3h-7.8v-73.2h7.8v73.2ZM706.9,212.3l-1.6-7.3h-.4c-2.6,3.2-5.1,5.4-7.7,6.6-2.6,1.1-5.7,1.7-9.6,1.7s-9.1-1.3-12-3.9c-2.9-2.6-4.3-6.4-4.3-11.2,0-10.4,8.3-15.9,25-16.4l8.7-.3v-3.2c0-4-.9-7-2.6-9-1.7-1.9-4.5-2.9-8.3-2.9s-9.2,1.3-14.6,3.9l-2.4-6c2.5-1.4,5.3-2.5,8.3-3.2,3-.8,6.1-1.2,9.1-1.2,6.1,0,10.7,1.4,13.7,4.1,3,2.7,4.4,7.1,4.4,13.1v35.2h-5.8s0,0,0,0ZM689.3,206.8c4.9,0,8.7-1.3,11.4-4,2.8-2.7,4.2-6.4,4.2-11.2v-4.7l-7.8.3c-6.2.2-10.7,1.2-13.4,2.9-2.7,1.7-4.1,4.4-4.1,8s.9,5,2.6,6.4c1.7,1.5,4.1,2.2,7.2,2.2h0ZM717.3,160.7h8.4l11.3,29.4c2.5,6.7,4,11.6,4.6,14.5h.4c.4-1.6,1.3-4.3,2.6-8.2,1.3-3.9,5.6-15.8,12.8-35.7h8.4l-22.2,58.7c-2.2,5.8-4.8,9.9-7.7,12.3-2.9,2.4-6.5,3.6-10.8,3.6s-4.7-.3-7.1-.8v-6.3c1.7.4,3.7.6,5.8.6,5.4,0,9.2-3,11.5-9l2.9-7.3s-20.8-51.8-20.8-51.8ZM478,165.5c2.5,2.1,7.7,6.4,7.7,14.6s-4.5,11.8-9.1,15.3c-1.4,1.4-3,2.9-3,5.3s1.6,3.7,2.8,4.6l3.9,3c4.7,4,9,7.7,9,15.1s-9.8,20.4-28.3,20.4-23.2-7.4-23.2-15.4,1.9-9.4,8.3-13.2c6.7-4.1,15.7-4.6,20.6-5-1.5-1.9-3.2-4-3.2-7.3s.5-2.9,1.1-4.2c-1.2.1-2.4.2-3.5.2-11.4,0-17.9-8.5-17.9-16.9s2.3-10.5,6.9-14.4c6.1-5.1,13.5-5.9,19.3-5.9h22.2l-6.9,3.9h-6.7s0,0,0,0ZM470.3,213.4c-.9-.1-1.4-.1-2.5-.1s-6.8.2-11.3,1.7c-2.4.9-9.3,3.4-9.3,11.1s7.4,13.2,19,13.2,15.8-5,15.8-11.6c0-5.5-3.6-8.4-11.8-14.2h0ZM473.5,192.9c2.5-2.5,2.7-5.9,2.7-7.9,0-7.8-4.6-19.8-13.6-19.8s-5.8,1.4-7.5,3.6c-1.8,2.3-2.4,5.2-2.4,8,0,7.2,4.2,19.2,13.5,19.2s5.6-1.3,7.3-3h0ZM410.1,211.7c-17.1,0-26.3-13.3-26.3-25.4s11.5-26.1,27.9-26.1,25.7,12.4,25.7,25.4c0,12.7-9.8,26.2-27.3,26.2h0ZM423.6,202.9c2.6-3.4,3.2-7.8,3.2-12,0-9.5-4.5-27.6-17.9-27.6s-7.1,1.4-9.7,3.7c-4.2,3.8-5,8.5-5,13.1,0,10.6,5.3,28.2,18.3,28.2s8.5-2,11-5.5h0ZM351.8,211.7c-17.1,0-26.3-13.3-26.3-25.4s11.5-26.1,27.9-26.1,25.7,12.4,25.7,25.4c0,12.7-9.8,26.2-27.3,26.2ZM365.3,202.9c2.6-3.4,3.2-7.8,3.2-12,0-9.5-4.5-27.6-17.9-27.6s-7.1,1.4-9.7,3.7c-4.2,3.8-5,8.5-5,13.1,0,10.6,5.3,28.2,18.3,28.2s8.5-2,11-5.5ZM317.3,210l-15.5,3.6c-6.3,1-11.9,1.8-17.9,1.8-29.9,0-41.2-22-41.2-39.2s16.1-40.5,43.7-40.5,11.5.9,16.6,2.3c8.1,2.3,11.9,5.1,14.3,6.7l-9,8.5-3.8.9,2.7-4.3c-3.7-3.6-10.4-10.2-23.2-10.2s-30,13-30,31.9,14.7,39.5,38.3,39.5,10.5-1.4,13.7-2.7v-17.4l-16.3.9,8.7-4.7h22.9l-2.8,2.7c-.8.7-.9.9-1.1,1.7-.1,1-.2,4.1-.2,5.2v13.2h0Z"/>
  <path class="st9" d="M512.2,206.8c-3.6-.3-4.3-1-4.3-5.2v-61.2c0-.2,0-.5,0-.7.4-3.8,1.5-4.4,4.9-6.4h-15.5l-8.1,3.9h8.3s0,0,0,0v66.8c0,2.2-.4,2.5-2.9,5.7h19.2l4-2.4c-1.8-.2-3.7-.3-5.5-.5h0ZM556.2,207.8c-1.2.6-2.4,1.4-3.5,1.9-3.6,1.6-7.2,2-10.4,2s-8.8-.2-14.3-4.2c-7.6-5.4-11-14.6-11-22.7,0-16.7,13.5-24.8,24.6-24.8s7.9,1,11.1,3c5.4,3.5,6.8,8.2,7.5,10.6l-25.2,10.2-8.3.6c2.7,13.6,11.9,21.6,22.1,21.6s9.5-1.9,13.1-3.8l-5.7,5.4h0ZM546.1,175.8c2-.7,3.1-1.4,3.1-2.9,0-4.3-4.8-9.2-10.6-9.2s-12.4,3.3-12.4,14.9.2,3.8.3,5.7l19.6-8.5h0ZM566.6,160.9v7.1h-.9v-7.1h-2.3v-.7h5.6v.7h-2.3ZM576.3,168v-7.2h0l-2.2,7.2h-.7l-2.2-7.2h0v7.2h-.8v-7.8h1.3l2,6.3h0l2-6.3h1.4v7.8h-.8Z"/>
  <path class="st4" d="M264.3,114.7h-5.4c0-.7-.5-2.8-1.5-6.3h-7.8c-1.1,3.4-1.6,5.5-1.6,6.3h-5.1c0-.4,1.3-4,3.9-10.8,2.6-6.7,3.9-10.4,3.9-11.1h6.4c0,.6,1.2,4.3,3.6,11s3.6,10.3,3.6,10.9ZM256.5,105.2c-1.9-5.8-2.9-8.9-2.9-9.4h-.3c0,.4-1,3.6-3,9.4,0,0,6.1,0,6.1,0ZM285.9,114.7h-4.1c0-.5-1.5-2.9-4.6-7.3-3.2-4.6-5.1-7.8-5.5-9.5h-.3c.3,2.5.4,4.7.4,6.7s0,6.1.2,10.1h-4.1c.2-3.5.3-7.3.3-11.4s0-7.6-.3-10.4h5c0,.6,1.4,3,4.1,7.1,2.9,4.4,4.6,7.4,5.1,9h.3c-.3-2.5-.4-4.7-.4-6.7,0-3,0-6.1-.2-9.3h4.2c-.2,2.8-.2,6.3-.2,10.4,0,4.2,0,8,.2,11.4ZM310.3,103c0,3.2-1,6-3.1,8.3-2,2.4-4.9,3.6-8.6,3.6s-3.9,0-6.9-.2c.1-3.4.2-7.2.2-11.4s0-7.6-.2-10.4h2.9c.5,0,1.2,0,2.2,0,1,0,1.6,0,1.9,0,4,0,7,1,8.8,3,1.8,2,2.7,4.4,2.7,7.3ZM305.7,103.7c0-2.2-.6-4-1.9-5.4-1.3-1.5-3.2-2.2-5.7-2.2s-1.1,0-2,.2c.1,2.2.2,4.6.2,7s0,5.3.2,8c.7.1,1.5.2,2.2.2,2.4,0,4.2-.7,5.4-2.2,1.2-1.5,1.7-3.3,1.7-5.5h0ZM332.7,114.7h-5c-1.3-4-2.3-6.4-3-7.3-.7-.9-1.8-1.4-3.4-1.4s-1.3,0-1.9,0c0,2.9,0,5.8.2,8.7h-4.7c.1-3.4.2-7.2.2-11.4s0-7.6-.2-10.4h2.9c.3,0,1,0,2.1,0s2.1,0,3,0c5.1,0,7.7,1.8,7.7,5.3s-1.5,4.7-4.4,5.8v.3c1.1.3,2.1,1.2,3,2.6.8,1.4,2,4.1,3.4,8ZM326.4,99.2c0-2.2-1.4-3.3-4.3-3.3s-2,0-2.8.2c.1,1.7.2,4,.2,6.8.6,0,1.1,0,1.6,0,3.6,0,5.3-1.2,5.3-3.7ZM356.8,103.3c0,3.4-1.1,6.3-3.2,8.6-2.1,2.3-4.7,3.4-7.8,3.4s-5.4-1-7.4-3.1c-2-2.1-3-4.7-3-7.9s1.1-6.3,3.2-8.6c2.1-2.3,4.7-3.4,7.8-3.4s5.4,1,7.4,3.1c2,2.1,3,4.7,3,7.9ZM352.2,103.8c0-2.3-.6-4.2-1.8-5.7-1.2-1.5-2.7-2.2-4.4-2.2s-3,.7-4.2,2.2-1.7,3.3-1.7,5.6.6,4.2,1.8,5.7c1.2,1.5,2.7,2.2,4.4,2.2s3-.7,4.2-2.2c1.1-1.5,1.7-3.3,1.7-5.6h0ZM366.3,114.7h-4.8c.1-3.5.2-7.3.2-11.4s0-7.6-.2-10.4h4.8c-.1,2.8-.2,6.3-.2,10.4s0,8,.2,11.4ZM390.7,103c0,3.2-1,6-3.1,8.3-2,2.4-4.9,3.6-8.6,3.6s-3.9,0-6.9-.2c.1-3.4.2-7.2.2-11.4s0-7.6-.2-10.4h2.9c.5,0,1.2,0,2.2,0,1,0,1.6,0,1.9,0,4,0,7,1,8.8,3,1.8,2,2.7,4.4,2.7,7.3ZM386.1,103.7c0-2.2-.6-4-1.9-5.4-1.3-1.5-3.2-2.2-5.7-2.2s-1.1,0-2,.2c.1,2.2.2,4.6.2,7s0,5.3.2,8c.7.1,1.5.2,2.2.2,2.4,0,4.2-.7,5.4-2.2,1.2-1.5,1.7-3.3,1.7-5.5ZM423,114.7h-5.4c0-.7-.5-2.8-1.5-6.3h-7.8c-1.1,3.4-1.6,5.5-1.6,6.3h-5.1c0-.4,1.3-4,3.9-10.8,2.6-6.7,3.9-10.4,3.9-11.1h6.4c0,.6,1.2,4.3,3.6,11s3.6,10.3,3.6,10.9h0ZM415.2,105.2c-1.9-5.8-2.9-8.9-2.9-9.4h-.3c0,.4-1,3.6-3,9.4,0,0,6.1,0,6.1,0ZM442.6,98.5c0,2.7-1,4.7-3,5.9s-4.4,1.9-7.3,1.9-.9,0-1.1,0c0,2.1,0,4.9.2,8.3h-4.7c.1-3.2.2-7.1.2-11.4s0-7.5-.2-10.4h2.9c.4,0,1.2,0,2.4,0s2.2,0,3.1,0c2.1,0,3.9.5,5.4,1.4,1.5,1,2.2,2.4,2.2,4.4ZM438.2,99.4c0-2.4-1.6-3.6-4.8-3.6s-1.6,0-2.5.3c.1,2.1.2,4.5.2,7.2.3,0,.6,0,1,0,4.1,0,6.1-1.3,6.1-3.9ZM462.7,98.5c0,2.7-1,4.7-3,5.9-2,1.3-4.4,1.9-7.3,1.9s-.9,0-1.1,0c0,2.1,0,4.9.2,8.3h-4.7c.1-3.2.2-7.1.2-11.4s0-7.5-.2-10.4h2.9c.4,0,1.2,0,2.4,0s2.2,0,3.1,0c2.1,0,3.9.5,5.4,1.4,1.5,1,2.2,2.4,2.2,4.4h0ZM458.4,99.4c0-2.4-1.6-3.6-4.8-3.6s-1.6,0-2.5.3c.1,2.1.2,4.5.2,7.2.3,0,.6,0,1,0,4.1,0,6.1-1.3,6.1-3.9ZM495.7,103.3c0,3.4-1.1,6.3-3.2,8.6-2.1,2.3-4.7,3.4-7.8,3.4s-5.4-1-7.4-3.1c-2-2.1-3-4.7-3-7.9s1.1-6.3,3.2-8.6c2.1-2.3,4.7-3.4,7.8-3.4s5.4,1,7.4,3.1c2,2.1,3,4.7,3,7.9ZM491,103.8c0-2.3-.6-4.2-1.8-5.7s-2.7-2.2-4.4-2.2-3,.7-4.2,2.2-1.7,3.3-1.7,5.6.6,4.2,1.8,5.7c1.2,1.5,2.7,2.2,4.4,2.2s3-.7,4.2-2.2c1.1-1.5,1.7-3.3,1.7-5.6ZM518.4,114.7h-4.1c0-.5-1.5-2.9-4.6-7.3-3.2-4.6-5.1-7.8-5.5-9.5h-.3c.3,2.5.4,4.7.4,6.7s0,6.1.2,10.1h-4.1c.2-3.5.3-7.3.3-11.4s0-7.6-.3-10.4h5c0,.6,1.4,3,4.1,7.1,2.9,4.4,4.6,7.4,5.1,9h.3c-.3-2.5-.4-4.7-.4-6.7,0-3,0-6.1-.2-9.3h4.2c-.2,2.8-.2,6.3-.2,10.4,0,4.2,0,8,.2,11.4Z"/>
</svg>